<svg width="24" height="25" viewBox="0 0 24 25" fill="none" xmlns="http://www.w3.org/2000/svg">
<path id="Vector" d="M13.2336 0.00342955C14.1092 6.93966e-05 14.9849 0.00887004 15.8603 0.0298287L16.0931 0.0382284C16.3619 0.0478281 16.627 0.0598276 16.9474 0.0742272C18.2242 0.134225 19.0953 0.335818 19.8597 0.632208C20.6516 0.936998 21.3188 1.34978 21.986 2.01696C22.596 2.61647 23.0681 3.34165 23.3695 4.14209C23.6659 4.90646 23.8675 5.77883 23.9275 7.05559C23.9419 7.37478 23.9539 7.64117 23.9635 7.90996L23.9707 8.14275C23.992 9.01775 24.0012 9.89301 23.9983 10.7683L23.9995 11.6634V13.2354C24.0024 14.111 23.9932 14.9867 23.9719 15.8621L23.9647 16.0949C23.9551 16.3637 23.9431 16.6289 23.9287 16.9493C23.8687 18.226 23.6647 19.0972 23.3695 19.8616C23.0691 20.6628 22.5968 21.3886 21.986 21.9879C21.386 22.5978 20.6604 23.0699 19.8597 23.3714C19.0953 23.6678 18.2242 23.8694 16.9474 23.9294C16.627 23.9438 16.3619 23.9558 16.0931 23.9654L15.8603 23.9726C14.9849 23.9939 14.1093 24.0031 13.2336 24.0002L12.3385 24.0014H10.7677C9.8921 24.0044 9.01646 23.9952 8.14108 23.9738L7.90829 23.9666C7.62343 23.9563 7.33864 23.9443 7.05393 23.9306C5.7772 23.8706 4.90604 23.6666 4.14048 23.3714C3.33974 23.0707 2.61444 22.5984 2.01539 21.9879C1.40467 21.3882 0.932114 20.6626 0.63066 19.8616C0.334275 19.0972 0.132686 18.226 0.0726886 16.9493C0.0593248 16.6645 0.0473253 16.3797 0.0366905 16.0949L0.0306909 15.8621C0.00856838 14.9867 -0.00143218 14.111 0.000692365 13.2354V10.7683C-0.00265662 9.89301 0.00614386 9.01776 0.0270911 8.14275L0.0354906 7.90996C0.0450901 7.64117 0.0570895 7.37478 0.0714887 7.05559C0.131486 5.77763 0.333075 4.90766 0.62946 4.14209C0.931092 3.34126 1.40458 2.61627 2.01659 2.01816C2.61523 1.40708 3.34007 0.934085 4.14048 0.632208C4.90604 0.335818 5.776 0.134225 7.05393 0.0742272L7.90829 0.0382284L8.14108 0.0322288C9.01605 0.0101169 9.89129 0.000116167 10.7665 0.00222968L13.2336 0.00342955ZM12.0001 6.00323C11.2051 5.99198 10.4159 6.13885 9.67817 6.43529C8.94047 6.73173 8.26904 7.17184 7.70291 7.73003C7.13678 8.28822 6.68723 8.95337 6.38039 9.68682C6.07355 10.4203 5.91554 11.2074 5.91554 12.0024C5.91554 12.7975 6.07355 13.5846 6.38039 14.318C6.68723 15.0515 7.13678 15.7166 7.70291 16.2748C8.26904 16.833 8.94047 17.2731 9.67817 17.5696C10.4159 17.866 11.2051 18.0129 12.0001 18.0016C13.5913 18.0016 15.1173 17.3695 16.2425 16.2443C17.3677 15.1191 17.9998 13.5931 17.9998 12.0018C17.9998 10.4106 17.3677 8.8845 16.2425 7.75932C15.1173 6.63414 13.5913 6.00323 12.0001 6.00323ZM12.0001 8.40314C12.4783 8.39433 12.9534 8.4809 13.3978 8.65778C13.8421 8.83467 14.2468 9.09833 14.5881 9.43336C14.9294 9.76839 15.2005 10.1681 15.3856 10.6091C15.5707 11.0501 15.6661 11.5235 15.6662 12.0018C15.6663 12.4801 15.5711 12.9536 15.3861 13.3946C15.2011 13.8357 14.9301 14.2355 14.5889 14.5706C14.2477 14.9058 13.8432 15.1696 13.3989 15.3466C12.9546 15.5236 12.4795 15.6104 12.0013 15.6017C11.0465 15.6017 10.1309 15.2224 9.45582 14.5473C8.78073 13.8722 8.40146 12.9566 8.40146 12.0018C8.40146 11.0471 8.78073 10.1314 9.45582 9.45632C10.1309 8.78121 11.0465 8.40194 12.0013 8.40194L12.0001 8.40314ZM18.2998 4.20329C17.9126 4.21878 17.5465 4.38346 17.2781 4.66284C17.0097 4.94221 16.8598 5.31461 16.8598 5.70204C16.8598 6.08946 17.0097 6.46186 17.2781 6.74123C17.5465 7.02061 17.9126 7.18529 18.2998 7.20078C18.6976 7.20078 19.0791 7.04275 19.3604 6.76146C19.6417 6.48016 19.7997 6.09865 19.7997 5.70084C19.7997 5.30302 19.6417 4.92151 19.3604 4.64021C19.0791 4.35892 18.6976 4.20089 18.2998 4.20089V4.20329Z" fill="#E3E3E3"/>
</svg>
