<svg viewBox="0 0 45 44" fill="none" xmlns="http://www.w3.org/2000/svg">
<g id="Subtract">
<path fill-rule="evenodd" clip-rule="evenodd" d="M44.2353 22.3002C44.2353 22.3602 44.2351 22.4201 44.2346 22.4799C41.4503 22.251 37.9733 22.2761 34.8794 23.0863C29.8239 24.4103 25.4962 23.9138 23.9642 23.5001C22.5909 23.0413 21.4019 22.6717 20.3578 22.3783V19.3509C20.3578 19.2138 20.2476 19.1026 20.1116 19.1026H19.9738C19.8379 19.1026 19.7276 19.2138 19.7276 19.3509V22.2058C15.0747 20.9674 13.4709 21.3674 10.7853 22.0371C8.62191 22.5766 5.75652 23.2911 0.0296639 23.4653C0.00996937 23.0794 0 22.691 0 22.3002C0 9.98416 9.90241 0 22.1176 0C34.3329 0 44.2353 9.98416 44.2353 22.3002ZM17.696 15.368L16.9473 14.2902C16.8767 14.1887 16.8913 14.0502 16.9815 13.9658L17.9887 13.0234C18.0487 12.9673 18.1323 12.9449 18.212 12.9636L19.4256 13.2483C19.58 13.2846 19.7276 13.1664 19.7276 13.0066V12.6603C19.7276 12.5232 19.8379 12.412 19.9738 12.412H20.1116C20.2476 12.412 20.3578 12.5232 20.3578 12.6603V13.1127C20.3578 13.2324 20.4425 13.335 20.5592 13.3568L22.6695 13.7506C22.7446 13.7646 22.809 13.813 22.8438 13.8815L23.1807 14.5443C23.2289 14.639 23.2118 14.7541 23.1382 14.8304L22.591 15.3985C22.5447 15.4467 22.481 15.4738 22.4144 15.4738H17.8976C17.8173 15.4738 17.742 15.4343 17.696 15.368ZM17.6957 16.4375L17.2473 17.0567C17.1945 17.1296 17.1852 17.2256 17.2228 17.3075L17.5343 17.9848C17.5688 18.0598 17.6379 18.1125 17.7188 18.1255L22.3945 18.8785C22.4724 18.8911 22.5516 18.8652 22.6074 18.809L23.409 18.0012C23.493 17.9166 23.5051 17.7837 23.4379 17.685L22.5919 16.4433C22.546 16.3759 22.4701 16.3357 22.389 16.3357H20.594C20.4636 16.3357 20.3578 16.229 20.3578 16.0975C20.3578 15.966 20.2521 15.8594 20.1216 15.8594H19.9638C19.8334 15.8594 19.7276 15.966 19.7276 16.0975C19.7276 16.229 19.6219 16.3357 19.4914 16.3357H17.8946C17.816 16.3357 17.7421 16.3735 17.6957 16.4375Z" fill="#E3E3E3"/>
<path d="M34.9076 24.4171C37.9658 23.6162 41.3985 23.5824 44.1664 23.8028C43.1153 35.1327 33.6576 44 22.1458 44C21.4037 44 20.6701 43.9632 19.9468 43.8912L19.948 43.8913C21.338 42.8628 23.0614 41.0838 25.4772 35.0719C26.7408 30.3537 26.9671 29.5086 28.7941 26.7217C29.4993 25.8833 30.1808 25.5042 31.227 25.1051C32.3842 24.9726 33.6223 24.7537 34.9076 24.4171Z" fill="white"/>
<path d="M23.9924 25.0458C24.2364 25.1117 24.5513 25.1797 24.9289 25.2421L24.8429 25.3701C23.4915 27.3817 21.1174 30.9157 19.948 35.2783C18.6989 38.2158 17.3858 40.6569 14.158 42.7163C6.80536 39.8441 1.35509 33.1232 0.238843 25.0053C5.8453 24.8218 8.67299 24.1166 10.8135 23.5828C14.1857 22.7419 15.8523 22.3263 23.9924 25.0458Z" fill="white"/>
<path d="M34.9076 24.4171C37.9658 23.6162 41.3985 23.5824 44.1664 23.8028C43.1153 35.1327 33.6576 44 22.1458 44C21.4037 44 20.6701 43.9632 19.9468 43.8912L19.948 43.8913C21.338 42.8628 23.0614 41.0838 25.4772 35.0719C26.7408 30.3537 26.9671 29.5086 28.7941 26.7217C29.4993 25.8833 30.1808 25.5042 31.227 25.1051C32.3842 24.9726 33.6223 24.7537 34.9076 24.4171Z" fill="white"/>
<path d="M34.9076 24.4171C37.9658 23.6162 41.3985 23.5824 44.1664 23.8028C43.1153 35.1327 33.6576 44 22.1458 44C21.4037 44 20.6701 43.9632 19.9468 43.8912L19.948 43.8913C21.338 42.8628 23.0614 41.0838 25.4772 35.0719C26.7408 30.3537 26.9671 29.5086 28.7941 26.7217C29.4993 25.8833 30.1808 25.5042 31.227 25.1051C32.3842 24.9726 33.6223 24.7537 34.9076 24.4171Z" fill="white"/>
</g>
</svg>
