<svg width="24" height="20" viewBox="0 0 24 20" fill="none" xmlns="http://www.w3.org/2000/svg">
<path id="Vector" d="M7.539 19.7525C16.596 19.7525 21.5505 12.248 21.5505 5.7515C21.5505 5.5415 21.5505 5.3285 21.5415 5.1185C22.5061 4.42023 23.3386 3.55573 24 2.5655C23.099 2.96278 22.1441 3.22461 21.1665 3.3425C22.1963 2.72696 22.9676 1.75846 23.337 0.617005C22.3695 1.19019 21.3105 1.59256 20.2065 1.8065C19.4643 1.01604 18.4821 0.492381 17.4121 0.316641C16.3422 0.1409 15.2441 0.322887 14.288 0.83441C13.3319 1.34593 12.5712 2.15845 12.1237 3.14609C11.6761 4.13374 11.5668 5.2414 11.8125 6.29751C9.85461 6.19933 7.93922 5.69071 6.19056 4.80462C4.4419 3.91853 2.89903 2.67477 1.662 1.154C1.03401 2.23863 0.842361 3.52161 1.12597 4.7424C1.40958 5.9632 2.14718 7.0303 3.189 7.727C2.40831 7.70048 1.64478 7.49084 0.96 7.115V7.1825C0.961346 8.31873 1.35496 9.41964 2.07431 10.2991C2.79366 11.1787 3.79462 11.7828 4.908 12.0095C4.48539 12.1259 4.04884 12.184 3.6105 12.182C3.30148 12.1829 2.99307 12.1543 2.6895 12.0965C3.00418 13.0746 3.61691 13.9298 4.44187 14.5422C5.26683 15.1547 6.2627 15.4938 7.29 15.512C5.54483 16.8827 3.3891 17.6261 1.17 17.6225C0.778981 17.6242 0.388235 17.6016 0 17.555C2.25227 18.9909 4.86795 19.7533 7.539 19.7525Z" fill="#E3E3E3"/>
</svg>
