<svg width="41" height="40" viewBox="0 0 41 40" fill="none" xmlns="http://www.w3.org/2000/svg">
<g id="ph:phone-fill">
<path id="Vector" d="M36.7313 27.3562C36.4527 29.4734 35.4129 31.4168 33.8061 32.8235C32.1994 34.2301 30.1355 35.0038 28 34.9999C15.5938 34.9999 5.50001 24.9062 5.50001 12.4999C5.49619 10.3644 6.26984 8.30059 7.67647 6.69383C9.08311 5.08707 11.0265 4.04728 13.1438 3.76868C13.6792 3.7033 14.2213 3.81284 14.6894 4.08093C15.1574 4.34901 15.5262 4.76128 15.7406 5.25618L19.0406 12.6234V12.6421C19.2048 13.0209 19.2727 13.4346 19.238 13.846C19.2034 14.2574 19.0674 14.6539 18.8422 14.9999C18.8141 15.0421 18.7844 15.0812 18.7531 15.1202L15.5 18.9765C16.6703 21.3546 19.1578 23.8202 21.5672 24.9937L25.3703 21.7577C25.4077 21.7263 25.4468 21.6971 25.4875 21.6702C25.8333 21.4396 26.2311 21.2988 26.645 21.2607C27.0588 21.2225 27.4757 21.288 27.8578 21.4515L27.8781 21.4609L35.2391 24.7593C35.7348 24.973 36.1481 25.3415 36.4171 25.8096C36.6861 26.2776 36.7963 26.8202 36.7313 27.3562Z" fill="url(#paint0_linear_34_150)"/>
</g>
<defs>
<linearGradient id="paint0_linear_34_150" x1="37" y1="4" x2="6" y2="35" gradientUnits="userSpaceOnUse">
<stop stop-color="#17608D"/>
<stop offset="1" stop-color="#2997CE"/>
</linearGradient>
</defs>
</svg>
