<svg width="16" height="13" viewBox="0 0 16 13" fill="none" xmlns="http://www.w3.org/2000/svg">
<path id="&#226;&#128;&#156;" d="M0 12.1534V8.67614C0 7.67614 0.1875 6.63636 0.5625 5.55682C0.948864 4.46591 1.47159 3.4375 2.13068 2.47159C2.80114 1.49432 3.55114 0.670456 4.38068 0L7.24432 1.85795C6.57386 2.86932 6.01136 3.92614 5.55682 5.02841C5.11364 6.11932 4.89773 7.32386 4.90909 8.64205V12.1534H0ZM8.64205 12.1534V8.67614C8.64205 7.67614 8.82955 6.63636 9.20455 5.55682C9.59091 4.46591 10.1136 3.4375 10.7727 2.47159C11.4432 1.49432 12.1932 0.670456 13.0227 0L15.8864 1.85795C15.2159 2.86932 14.6534 3.92614 14.1989 5.02841C13.7557 6.11932 13.5398 7.32386 13.5511 8.64205V12.1534H8.64205Z" fill="white"/>
</svg>
